<svg width="1628" height="1208" viewBox="0 0 1628 1208" fill="none" xmlns="http://www.w3.org/2000/svg">
<path d="M256.535 547.089C249.951 547.089 244.19 544.858 239.252 540.397C234.314 535.937 231.186 530.154 229.869 523.05C225.754 495.459 221.392 471.667 216.783 451.676C212.339 431.685 206.989 414.75 200.734 400.872C194.479 386.994 186.743 375.429 177.525 366.177C168.307 356.759 156.867 349.077 143.205 343.129C129.543 337.181 113.001 332.142 93.5773 328.012C74.3186 323.881 51.3564 319.999 24.6906 316.364C17.448 315.373 11.5223 312.399 6.91336 307.442C2.30445 302.321 0 296.373 0 289.599C0 282.66 2.30445 276.712 6.91336 271.756C11.6869 266.634 17.6949 263.577 24.9375 262.586C56.8706 258.951 83.7011 254.738 105.429 249.947C127.321 244.991 145.345 238.299 159.501 229.873C173.657 221.282 185.097 209.717 193.821 195.178C202.545 180.639 209.623 162.134 215.055 139.665C220.487 117.03 225.425 89.1914 229.869 56.1481C231.022 49.0438 234.067 43.2612 239.005 38.8004C243.943 34.3396 249.786 32.1091 256.535 32.1091C263.284 32.1091 269.045 34.3396 273.819 38.8004C278.757 43.096 281.802 48.796 282.954 55.9003C288.057 88.9436 293.406 116.7 299.003 139.169C304.599 161.639 311.677 180.06 320.237 194.434C328.961 208.808 340.319 220.291 354.31 228.882C368.466 237.308 386.408 244.082 408.135 249.204C429.863 254.16 456.611 258.621 488.38 262.586C495.458 263.577 501.301 266.634 505.91 271.756C510.684 276.712 513.07 282.66 513.07 289.599C513.07 296.373 510.684 302.321 505.91 307.442C501.136 312.564 495.293 315.538 488.38 316.364C456.447 319.999 429.534 324.294 407.641 329.251C385.749 334.042 367.725 340.733 353.569 349.325C339.413 357.916 327.973 369.481 319.249 384.02C310.525 398.394 303.447 416.898 298.015 439.533C292.583 462.002 287.563 489.759 282.954 522.802C281.966 529.906 279.004 535.689 274.065 540.15C269.127 544.776 263.284 547.089 256.535 547.089Z" fill="#FA9929"/>
<path d="M1285.95 1207.65C1277.17 1207.65 1269.49 1204.68 1262.91 1198.73C1256.32 1192.78 1252.15 1185.07 1250.4 1175.6C1244.91 1138.81 1239.1 1107.09 1232.95 1080.43C1227.02 1053.78 1219.89 1031.2 1211.55 1012.7C1203.21 994.192 1192.9 978.772 1180.61 966.436C1168.32 953.879 1153.06 943.636 1134.85 935.705C1116.63 927.775 1094.57 921.056 1068.68 915.549C1043 910.042 1012.38 904.865 976.826 900.019C967.169 898.697 959.268 894.732 953.123 888.123C946.978 881.294 943.905 873.364 943.905 864.332C943.905 855.08 946.978 847.149 953.123 840.541C959.488 833.712 967.499 829.636 977.155 828.315C1019.73 823.468 1055.51 817.851 1084.48 811.462C1113.67 804.854 1137.7 795.932 1156.57 784.697C1175.45 773.242 1190.7 757.822 1202.33 738.437C1213.97 719.051 1223.4 694.379 1230.65 664.42C1237.89 634.24 1244.47 597.122 1250.4 553.064C1251.93 543.592 1255.99 535.881 1262.58 529.934C1269.16 523.986 1276.95 521.012 1285.95 521.012C1294.95 521.012 1302.63 523.986 1309 529.934C1315.58 535.661 1319.64 543.261 1321.18 552.734C1327.98 596.791 1335.11 633.8 1342.58 663.759C1350.04 693.718 1359.48 718.28 1370.89 737.446C1382.52 756.611 1397.66 771.921 1416.32 783.376C1435.19 794.61 1459.12 803.642 1488.09 810.471C1517.06 817.08 1552.72 823.028 1595.08 828.315C1604.52 829.636 1612.31 833.712 1618.45 840.541C1624.82 847.149 1628 855.08 1628 864.332C1628 873.364 1624.82 881.294 1618.45 888.123C1612.09 894.952 1604.3 898.917 1595.08 900.019C1552.5 904.865 1516.62 910.592 1487.43 917.201C1458.24 923.589 1434.21 932.511 1415.33 943.966C1396.46 955.421 1381.2 970.841 1369.57 990.227C1357.94 1009.39 1348.5 1034.06 1341.26 1064.24C1334.02 1094.2 1327.32 1131.21 1321.18 1175.27C1319.86 1184.74 1315.91 1192.45 1309.33 1198.4C1302.74 1204.57 1294.95 1207.65 1285.95 1207.65Z" fill="#FA9929"/>
<path d="M1042.46 7.28949C1085.91 -4.22056 1121.82 -2.09974 1150.19 13.6508C1178.56 29.4014 1198.17 58.9333 1209.04 102.248L1220.8 146.774C1226.84 170.703 1224.58 192.057 1214.01 210.836C1203.45 229.616 1185.65 242.338 1160.6 249.001L663.579 382.579H1193.19C1218.84 382.579 1239.21 390.151 1254.3 405.295C1269.24 420.293 1276.78 440.192 1276.93 464.992C1259.03 466.679 1242.28 473.492 1228.11 485.165L1224.86 487.974C1209.04 502.262 1199.47 520.448 1195.52 540.025L1194.8 543.962L1194.69 544.719L1194.58 545.477C1188.82 588.32 1182.55 623.387 1175.91 651.078C1169.56 677.341 1161.9 696.236 1154.06 709.302C1147.07 720.951 1138.35 729.681 1127.56 736.274C1115.24 743.565 1097.29 750.661 1072.13 756.369C1045.7 762.189 1012.03 767.531 970.689 772.237L970.058 772.312L969.426 772.395C948.969 775.195 930.088 784.01 914.936 798.912L911.959 801.975L911.912 802.017C895.807 819.337 887.585 841.125 887.584 864.289C887.584 887.576 896.017 908.904 911.294 925.881L911.603 926.225L911.912 926.562L914.909 929.639C930.152 944.624 949.078 953.114 969.097 955.854H969.131C1003.75 960.573 1032.9 965.529 1056.8 970.655L1056.89 970.675L1065.41 972.576C1084.74 977.082 1100.23 982.129 1112.35 987.404C1124.8 992.825 1133.79 999.177 1140.39 1005.91L1140.57 1006.09L1140.74 1006.27C1145.26 1010.81 1149.74 1016.54 1154 1023.79C1149.82 1024 1145.53 1024.11 1141.14 1024.11H396.961C351.695 1024.11 317.594 1012.75 294.66 990.038C272.027 967.623 260.71 934.153 260.71 889.627V603.445C279.834 602.534 297.567 595.121 311.792 582.11L311.805 582.123C311.9 582.038 311.985 581.941 312.08 581.855C312.235 581.711 312.404 581.58 312.559 581.435L312.545 581.421C327.617 567.477 336.118 549.538 338.745 530.672L338.751 530.68C343.205 498.75 347.921 472.954 352.771 452.89L352.792 452.793C357.341 433.839 362.61 421.286 367.386 413.417L367.537 413.169C371.661 406.298 376.63 401.382 382.797 397.639C390.164 393.169 401.917 388.314 419.764 384.408L419.963 384.367L420.163 384.319C439.418 379.96 464.176 375.951 494.865 372.457L495.023 372.437L495.173 372.423L498.925 371.893C517.534 368.847 534.165 359.893 547.092 346.023C561.222 330.862 569.41 311.286 569.41 289.657C569.41 268.829 561.88 249.359 547.744 234.013H547.757C547.536 233.767 547.302 233.533 547.079 233.29C546.87 233.069 546.673 232.835 546.461 232.616L546.448 232.623C532.798 218.107 515.283 209.452 496.298 206.793L495.887 206.732L495.468 206.683L484.255 205.231C458.854 201.826 437.858 198.159 421.006 194.327C407.127 191.047 396.729 187.305 389.11 183.622L1042.46 7.28949ZM434.985 458.909L370.254 579.764H519.18L587.079 453.456H553.129L434.985 458.909ZM657.694 579.764H817.484L885.382 453.456H725.14L657.694 579.764ZM955.998 579.764H1104.47L1172.37 453.456H1023.44L955.998 579.764ZM659.504 184.03L626.914 323.514L781.271 282.623L813.862 142.684L659.504 184.03ZM1090.44 69.0805C1085.01 70.2921 1079.42 71.5037 1073.69 72.7153C1068.26 73.9268 1062.52 75.2897 1056.49 76.8041L947.397 106.791L914.353 246.275L1058.3 207.656L1090.44 69.0805Z" fill="white"/>
</svg>
